# Blender v2.93.5 OBJ File: 'crystal.blend'
# www.blender.org
mtllib crystal.mtl
o Cube
v -30.000000 30.000000 20.000000
v -30.000000 30.000000 0.000000
v 30.000000 30.000000 20.000000
v 30.000000 30.000000 0.000000
v -30.000000 -30.000000 20.000000
v -30.000000 -30.000000 0.000000
v 30.000000 -30.000000 20.000000
v 30.000000 -30.000000 0.000000
vt 0.625000 0.750000
vt 0.875000 0.500000
vt 0.625000 0.500000
vt 0.375000 1.000000
vt 0.375000 0.750000
vt 0.375000 0.250000
vt 0.625000 0.000000
vt 0.375000 0.000000
vt 0.125000 0.750000
vt 0.375000 0.500000
vt 0.125000 0.500000
vt 0.625000 0.250000
vt 0.875000 0.750000
vt 0.625000 1.000000
vn 0.0000 0.0000 -1.0000
vn -1.0000 0.0000 0.0000
vn 0.0000 1.0000 0.0000
vn 0.0000 0.0000 1.0000
vn 0.0000 -1.0000 0.0000
vn 1.0000 0.0000 0.0000
usemtl test
s off
f 3/1/1 5/2/1 1/3/1
f 8/4/2 3/1/2 4/5/2
f 6/6/3 7/7/3 8/8/3
f 8/9/4 2/10/4 6/11/4
f 4/5/5 1/3/5 2/10/5
f 2/10/6 5/12/6 6/6/6
f 3/1/1 7/13/1 5/2/1
f 8/4/2 7/14/2 3/1/2
f 6/6/3 5/12/3 7/7/3
f 8/9/4 4/5/4 2/10/4
f 4/5/5 3/1/5 1/3/5
f 2/10/6 1/3/6 5/12/6
o Cube.001
v 2.000000 -2.000000 0.000000
v 2.000000 -2.000000 8.000000
v -2.000000 -2.000000 0.000000
v -2.000000 -2.000000 8.000000
v 2.000000 2.000000 0.000000
v 2.000000 2.000000 8.000000
v -2.000000 2.000000 0.000000
v -2.000000 2.000000 8.000000
vt 0.625000 0.000000
vt 0.375000 0.250000
vt 0.375000 0.000000
vt 0.625000 0.250000
vt 0.375000 0.500000
vt 0.625000 0.500000
vt 0.375000 0.750000
vt 0.625000 0.750000
vt 0.375000 1.000000
vt 0.125000 0.750000
vt 0.125000 0.500000
vt 0.875000 0.500000
vt 0.625000 1.000000
vt 0.875000 0.750000
vn 0.0000 -1.0000 0.0000
vn -1.0000 0.0000 0.0000
vn 0.0000 1.0000 0.0000
vn 1.0000 0.0000 0.0000
vn 0.0000 0.0000 -1.0000
vn 0.0000 0.0000 1.0000
usemtl None
s off
f 10/15/7 11/16/7 9/17/7
f 12/18/8 15/19/8 11/16/8
f 16/20/9 13/21/9 15/19/9
f 14/22/10 9/23/10 13/21/10
f 15/19/11 9/24/11 11/25/11
f 12/26/12 14/22/12 16/20/12
f 10/15/7 12/18/7 11/16/7
f 12/18/8 16/20/8 15/19/8
f 16/20/9 14/22/9 13/21/9
f 14/22/10 10/27/10 9/23/10
f 15/19/11 13/21/11 9/24/11
f 12/26/12 10/28/12 14/22/12
